<svg preserveAspectRatio="none" width="100%" height="100%" overflow="visible" style="display: block;" viewBox="0 0 14.9822 16.0298" fill="none" xmlns="http://www.w3.org/2000/svg">
<g id="ELEMENTS">
<path id="Vector" d="M3.6251 14.4694C3.6251 14.2012 3.6251 13.9329 3.6251 13.6647C3.627 13.6537 3.62662 13.6425 3.62396 13.6317C3.62131 13.6209 3.61645 13.6107 3.60967 13.6019C3.6029 13.593 3.59436 13.5856 3.58458 13.5801C3.5748 13.5746 3.56399 13.5712 3.55282 13.57C2.88185 13.3812 2.26254 13.0447 1.74106 12.5857C1.36111 12.2432 1.04475 11.8373 0.806396 11.3865C0.470433 10.7353 0.246846 10.0329 0.144902 9.30859C0.0185929 8.39995 -0.0252738 7.48192 0.0138279 6.56553C0.0224029 6.13829 0.0444527 5.71591 0.0934523 5.28867C0.171597 4.47679 0.378294 3.68217 0.705947 2.93401C1.11054 2.01411 1.84452 1.2752 2.76638 0.859723C3.39435 0.574991 4.055 0.367123 4.73371 0.240715C5.3993 0.1158 6.0732 0.0391314 6.75005 0.0113173C7.36016 -0.0100603 7.97097 -0.00114835 8.58018 0.0380196C9.45211 0.0744859 10.3162 0.217578 11.1527 0.464043C11.7729 0.641185 12.3629 0.909144 12.9032 1.25904C13.4296 1.61711 13.8554 2.10206 14.1404 2.6682C14.4755 3.32943 14.7033 4.03888 14.8154 4.7704C14.8882 5.20471 14.936 5.64277 14.9587 6.08246C14.9906 6.62743 14.9869 7.17483 14.966 7.71737C14.9452 8.25991 14.8987 8.78668 14.8313 9.3183C14.7461 10.1162 14.4986 10.8887 14.1037 11.5892C13.5896 12.4753 12.7661 13.1445 11.7884 13.4705C11.1199 13.7025 10.4297 13.8675 9.728 13.9633C9.21472 14.0337 8.70023 14.0847 8.18328 14.1053C7.78761 14.1235 7.39194 14.1186 6.99627 14.1126C6.77209 14.1126 6.54915 14.0907 6.3262 14.0713C6.30431 14.0672 6.28169 14.0697 6.2612 14.0783C6.2407 14.0869 6.22325 14.1014 6.21105 14.1199C5.76025 14.6563 5.29231 15.1782 4.82069 15.6977C4.73478 15.7925 4.63531 15.8743 4.52546 15.9405C4.45336 15.9873 4.37113 16.0168 4.28544 16.0263C4.19974 16.0359 4.11297 16.0254 4.03213 15.9956C3.95129 15.9659 3.87865 15.9177 3.82008 15.855C3.7615 15.7923 3.71863 15.7168 3.69492 15.6346C3.64824 15.4886 3.62509 15.3362 3.62632 15.1831C3.6251 14.9428 3.6251 14.7061 3.6251 14.4694ZM4.17022 15.4878L4.22779 15.4343L5.25066 14.3092C5.64429 13.8763 6.03751 13.443 6.43032 13.0093C6.44963 12.9828 6.47568 12.9619 6.50581 12.9487C6.53594 12.9355 6.56907 12.9304 6.60182 12.934C6.73535 12.9474 6.86887 12.9522 7.00362 12.9535C7.46911 12.9535 7.93461 12.9535 8.40011 12.9207C8.82273 12.8879 9.24412 12.8369 9.66307 12.7714C10.1141 12.6936 10.5607 12.5919 11.0008 12.4667C11.9808 12.2058 12.739 11.6475 13.2155 10.7432C13.4969 10.1873 13.6733 9.58509 13.7362 8.96631C13.8106 8.38309 13.8552 7.7965 13.8697 7.20881C13.8914 6.47055 13.8405 5.73194 13.7178 5.00344C13.6327 4.47564 13.4795 3.96085 13.2621 3.4717C12.9852 2.86483 12.5932 2.36234 11.9893 2.03948C11.0632 1.54427 10.0612 1.32337 9.02853 1.2105C8.73575 1.17894 8.44298 1.16195 8.14898 1.15102C7.547 1.12027 6.94374 1.12351 6.34212 1.16073C5.90946 1.19255 5.47912 1.2501 5.05343 1.33308C4.42741 1.44615 3.82179 1.65067 3.25638 1.93995C2.92858 2.10406 2.6312 2.32197 2.37683 2.58445C1.96458 3.04099 1.66219 3.5842 1.49239 4.17324C1.29096 4.85926 1.181 5.56844 1.16532 6.28273C1.1259 6.99701 1.13491 7.71311 1.19227 8.4262C1.22796 8.85056 1.29967 9.2712 1.40664 9.68363C1.5658 10.3264 1.87457 10.9232 2.30823 11.4266C2.77643 11.9401 3.38155 12.312 4.05384 12.4995C4.13837 12.525 4.17634 12.5541 4.17634 12.6488C4.16899 12.9984 4.17634 13.3479 4.17634 13.6975L4.17022 15.4878Z" fill="var(--fill-0, white)"/>
<path id="Vector_2" d="M3.31298 4.64673C3.30441 4.38092 3.45018 4.18794 3.62658 4.01437C3.85923 3.79355 4.11555 3.5986 4.39097 3.43299C4.51656 3.35625 4.6659 3.327 4.81151 3.35064C4.95712 3.37428 5.08923 3.44921 5.18354 3.56165C5.51678 3.90872 5.81505 4.28718 6.07411 4.69164C6.20239 4.87358 6.29926 5.07539 6.36076 5.2888C6.38533 5.37209 6.38693 5.46037 6.36539 5.54448C6.34384 5.62858 6.29994 5.70543 6.23826 5.76702C6.09694 5.90446 5.94632 6.0322 5.78746 6.14935C5.70742 6.21255 5.6479 6.29769 5.61632 6.39415C5.58473 6.49062 5.58248 6.59416 5.60984 6.69189C5.70794 7.15078 5.93026 7.57455 6.25296 7.91777C6.64507 8.39207 7.15028 8.76208 7.72294 8.99436C7.86366 9.06605 8.02489 9.08789 8.17987 9.05626C8.26474 9.03332 8.34017 8.98448 8.39546 8.91668C8.48121 8.80866 8.57431 8.70427 8.65149 8.58897C8.75158 8.44514 8.90442 8.34574 9.07742 8.31195C9.25041 8.27817 9.42989 8.31268 9.57758 8.40812C9.99282 8.64683 10.3849 8.92312 10.7487 9.23347C10.8344 9.30629 10.9238 9.37669 11.0096 9.45073C11.1111 9.5274 11.1843 9.63493 11.2182 9.75682C11.252 9.87872 11.2446 10.0083 11.197 10.1256C11.1213 10.3228 11.011 10.5053 10.8712 10.6645C10.6974 10.9038 10.476 11.1054 10.2207 11.2568C10.0986 11.3278 9.9615 11.3695 9.82026 11.3786C9.67901 11.3876 9.53758 11.3638 9.4073 11.309C8.4162 10.9136 7.49014 10.374 6.65965 9.70804C5.84736 9.04548 5.13749 8.26852 4.55267 7.40193C4.06058 6.68453 3.66909 5.90425 3.38893 5.08247C3.3591 4.98307 3.33457 4.88219 3.31543 4.78024C3.30999 4.73594 3.30917 4.6912 3.31298 4.64673V4.64673Z" fill="var(--fill-0, white)"/>
<path id="Vector_3" d="M7.54262 3.35528C8.37184 3.37047 9.16938 3.67353 9.7962 4.21164C10.423 4.74974 10.8393 5.48875 10.9726 6.29982C11.0262 6.5947 11.0549 6.89351 11.0583 7.19313C11.0583 7.26353 11.04 7.31451 10.964 7.32179C10.8881 7.32907 10.8685 7.26474 10.8685 7.20041C10.8799 6.59436 10.7543 5.99346 10.501 5.4417C10.2877 4.98833 9.97164 4.58983 9.57751 4.27722C9.18339 3.9646 8.72179 3.7463 8.22862 3.63929C7.96787 3.57948 7.70123 3.54854 7.4336 3.54705C7.40754 3.54749 7.38155 3.54422 7.35642 3.53734C7.33504 3.53136 7.31682 3.51739 7.30563 3.49838C7.29443 3.47936 7.29112 3.45677 7.2964 3.43538C7.29656 3.42524 7.29875 3.41522 7.30285 3.40593C7.30696 3.39663 7.31289 3.38823 7.3203 3.38123C7.32771 3.37422 7.33645 3.36875 7.34602 3.36513C7.35559 3.36151 7.36579 3.35981 7.37602 3.36013C7.43115 3.35285 7.4875 3.35528 7.54262 3.35528Z" fill="var(--fill-0, white)"/>
<path id="Vector_4" d="M9.90696 6.6469C9.90285 6.30971 9.81904 5.97816 9.66225 5.67885C9.50547 5.37954 9.28007 5.1208 9.00414 4.92339C8.68211 4.69925 8.30772 4.56015 7.91635 4.51921C7.8502 4.51072 7.78405 4.50708 7.71668 4.49979C7.6493 4.49251 7.60888 4.4646 7.615 4.39663C7.62113 4.32866 7.664 4.30438 7.7375 4.30924C8.82284 4.37478 9.74648 4.98286 10.0307 6.11528C10.0827 6.33364 10.1086 6.55729 10.1079 6.78163C10.1079 6.80226 10.1079 6.8229 10.1079 6.84232C10.1079 6.903 10.0687 6.94306 10.0086 6.94184C9.99532 6.9414 9.98224 6.93827 9.97019 6.93265C9.95814 6.92703 9.94737 6.91903 9.93854 6.90915C9.92971 6.89927 9.92301 6.88771 9.91885 6.87517C9.91468 6.86264 9.91314 6.84939 9.91431 6.83625C9.90451 6.7792 9.90696 6.72094 9.90696 6.6469Z" fill="var(--fill-0, white)"/>
<path id="Vector_5" d="M8.00539 5.29474C8.60074 5.3348 9.01601 5.62367 9.12993 6.25117C9.14375 6.33156 9.15357 6.41258 9.15933 6.49392C9.15933 6.55946 9.14463 6.6153 9.07236 6.6153C9.00008 6.6153 8.97558 6.56675 8.97313 6.49392C8.97246 6.25338 8.89766 6.01878 8.75876 5.82151C8.61278 5.64283 8.40322 5.52641 8.17322 5.49622C8.12179 5.4867 8.06984 5.48021 8.01764 5.47681C7.93189 5.47681 7.88412 5.43432 7.89514 5.36878C7.90617 5.30324 7.95762 5.2911 8.00539 5.29474Z" fill="var(--fill-0, white)"/>
</g>
</svg>
