<svg preserveAspectRatio="none" width="100%" height="100%" overflow="visible" style="display: block;" viewBox="0 0 24 24" fill="none" xmlns="http://www.w3.org/2000/svg">
<g id="Express Default ">
<path id="Vector" d="M19 9H14.33L15.97 3.27C16.06 2.97 16 2.64 15.81 2.39C15.62 2.14 15.32 1.99 15.01 1.99H8.01C7.53 1.99 7.12 2.33 7.03 2.79L5.03 12.79C4.97 13.08 5.05 13.39 5.24 13.62C5.43 13.85 5.71 13.99 6.01 13.99H8.73L7.04 20.75C6.93 21.19 7.13 21.64 7.52 21.86C7.67 21.95 7.84 21.99 8.01 21.99C8.27 21.99 8.52 21.89 8.72 21.7L19.72 10.7C20.01 10.41 20.09 9.98 19.94 9.61C19.79 9.24 19.42 8.99 19.02 8.99L19 9ZM9.85 17.74L10.97 13.24C11.05 12.94 10.97 12.62 10.79 12.38C10.6 12.14 10.31 12 10 12H7.22L8.82 4H13.67L12.03 9.73C11.94 10.03 12 10.36 12.19 10.61C12.38 10.86 12.68 11.01 12.99 11.01H16.58L9.84 17.75L9.85 17.74Z" fill="var(--fill-0, #FF9F13)"/>
</g>
</svg>
