<svg preserveAspectRatio="none" width="100%" height="100%" overflow="visible" style="display: block;" viewBox="0 0 24 24" fill="none" xmlns="http://www.w3.org/2000/svg">
<g id="Location 2">
<path id="Vector" d="M12 2.8623C15.737 2.8623 19.1375 5.76228 19.1377 10.334C19.1377 11.7307 18.6071 13.328 17.4394 15.1445C16.2736 16.9583 14.5017 18.9441 12.0976 21.1025C12.0437 21.149 11.9636 21.1488 11.9101 21.1016C9.50173 18.9434 7.72832 16.957 6.56151 15.1435C5.39298 13.3273 4.86229 11.7305 4.86229 10.334C4.86249 5.76228 8.26299 2.8623 12 2.8623ZM12 7.23534C10.4106 7.23534 9.13782 8.54986 9.13768 10.1309C9.13768 11.712 10.4105 13.0264 12 13.0264C13.5895 13.0264 14.8623 11.712 14.8623 10.1309C14.8622 8.54986 13.5894 7.23534 12 7.23534Z" stroke="var(--stroke-0, #202124)" stroke-opacity="0.72" stroke-width="1.725"/>
</g>
</svg>
