<svg preserveAspectRatio="none" width="100%" height="100%" overflow="visible" style="display: block;" viewBox="0 0 32 32" fill="none" xmlns="http://www.w3.org/2000/svg">
<g id="&#240;&#159;&#167;&#191; Promo bubbles" clip-path="url(#clip0_0_641)">
<path id="Vector" d="M32 16C32 7.16344 24.8366 0 16 0C7.16344 0 0 7.16344 0 16C0 24.8366 7.16344 32 16 32C24.8366 32 32 24.8366 32 16Z" fill="var(--fill-0, #FFCD00)"/>
<path id="Vector_2" d="M15.2678 11.2123H14.3299V15.1528H15.2678V11.2123Z" fill="var(--fill-0, #04000D)"/>
<path id="Vector_3" d="M14.3535 9.50216C14.2432 9.61256 14.1881 9.75176 14.1881 9.91984C14.1881 10.0933 14.2432 10.2378 14.3535 10.3534C14.4691 10.4637 14.6162 10.5188 14.7949 10.5188C14.9735 10.5188 15.118 10.4637 15.2283 10.3534C15.3439 10.2378 15.4017 10.0933 15.4017 9.91984C15.4017 9.75176 15.3439 9.61256 15.2283 9.50216C15.118 9.38664 14.9735 9.3288 14.7949 9.3288C14.6162 9.3288 14.4691 9.38664 14.3535 9.50216Z" fill="var(--fill-0, #04000D)"/>
<path id="Vector_4" d="M8.04768 15.1528H12.5319V16.4138H13.525V14.2466H12.8157V9.63616H11.8069V14.2466H9.05648V9.63616H8.04768V15.1528Z" fill="var(--fill-0, #04000D)"/>
<path id="Vector_5" d="M16.3708 11.2123H17.3086V12.7806H19.1134V11.2123H20.0512V15.1528H19.1134V13.5846H17.3086V15.1528H16.3708V11.2123Z" fill="var(--fill-0, #04000D)"/>
<path id="Vector_6" fill-rule="evenodd" clip-rule="evenodd" d="M21.899 14.9794C22.2247 15.1476 22.603 15.2316 23.0338 15.2316C23.4436 15.2316 23.8114 15.145 24.1372 14.9716C24.4682 14.7982 24.7256 14.5565 24.9095 14.2466C25.0934 13.9313 25.1854 13.5766 25.1854 13.1826C25.1854 12.778 25.096 12.4208 24.9174 12.1108C24.744 11.8008 24.4944 11.5618 24.1687 11.3936C23.843 11.2202 23.4646 11.1335 23.0338 11.1335C22.624 11.1335 22.2562 11.2202 21.9305 11.3936C21.6047 11.567 21.3499 11.8113 21.1661 12.1266C20.9822 12.4366 20.8902 12.7886 20.8902 13.1826C20.8902 13.5871 20.9769 13.9444 21.1503 14.2544C21.3289 14.5644 21.5785 14.8061 21.899 14.9794ZM22.1748 14.081C21.9594 13.8498 21.8517 13.5504 21.8517 13.1826C21.8517 12.8096 21.9594 12.5074 22.1748 12.2763C22.3954 12.0451 22.6818 11.9295 23.0338 11.9295C23.3858 11.9295 23.6722 12.0451 23.8929 12.2763C24.1135 12.5074 24.2238 12.8096 24.2238 13.1826C24.2238 13.5556 24.1135 13.8578 23.8929 14.0889C23.6722 14.3148 23.3858 14.4278 23.0338 14.4278C22.6818 14.4278 22.3954 14.3122 22.1748 14.081Z" fill="var(--fill-0, #04000D)"/>
<path id="Vector_7" d="M1.6 19.5346H2.99493V22.6712H3.93276V19.5346H5.33557V18.7308H1.6V19.5346Z" fill="var(--fill-0, #04000D)"/>
<path id="Vector_8" d="M6.95461 18.7308H6.02466V22.6712H6.90733L8.83024 20.1099V22.6712H9.76024V18.7308H8.86968L6.95461 21.2763V18.7308Z" fill="var(--fill-0, #04000D)"/>
<path id="Vector_9" d="M11.6257 20.6694L10.4514 18.7308H11.4445L12.3902 20.299H13.1074V18.7308H14.0373V20.299H14.7545L15.7159 18.7308H16.701L15.5346 20.6301L16.7246 22.6712H15.6765L14.7545 21.103H14.0373V22.6712H13.1074V21.103H12.3902L11.4445 22.6712H10.4199L11.6257 20.6694Z" fill="var(--fill-0, #04000D)"/>
<path id="Vector_10" d="M18.3106 18.7308H17.3806V22.6712H18.2633L20.1862 20.1099V22.6712H21.1162V18.7308H20.2256L18.3106 21.2763V18.7308Z" fill="var(--fill-0, #04000D)"/>
<path id="Vector_11" d="M22.1857 18.7308H23.1235V20.299H23.8249L24.9519 18.7308H25.9606L24.5894 20.6379L26.0079 22.6712H24.9125L23.817 21.103H23.1235V22.6712H22.1857V18.7308Z" fill="var(--fill-0, #04000D)"/>
<path id="Vector_12" d="M27.5944 18.7308H26.6644V22.6712H27.5471L29.4701 20.1099V22.6712H30.4V18.7308H29.5094L27.5944 21.2763V18.7308Z" fill="var(--fill-0, #04000D)"/>
</g>
<defs>
<clipPath id="clip0_0_641">
<rect width="32" height="32" fill="white"/>
</clipPath>
</defs>
</svg>
