<?xml version="1.0" encoding="UTF-8"?>
<svg id="Layer_2" data-name="Layer 2" xmlns="http://www.w3.org/2000/svg" viewBox="0 0 53.22 29.45">
  <defs>
    <style>
      .cls-1 {
        opacity: .5;
      }

      .cls-1, .cls-2 {
        fill: #fff;
      }

      .cls-3 {
        fill: #f47216;
      }

      .cls-4 {
        fill: #ef3120;
      }

      .cls-5 {
        fill: #706d6e;
      }

      .cls-6 {
        fill: #73c82c;
      }

      .cls-7 {
        fill: #fbc707;
      }

      .cls-8 {
        fill: #0e8a4a;
      }
    </style>
  </defs>
  <g id="Layer_1-2" data-name="Layer 1">
    <g>
      <rect class="cls-2" width="53.22" height="27.67" rx="2.63" ry="2.63"/>
      <path class="cls-5" d="M23.32,2.32c-.2,0-.38.03-.55.08-.18.06-.33.14-.46.25-.13.11-.24.24-.31.4-.08.16-.12.34-.12.55,0,.15.02.28.06.39.04.11.11.21.19.29.09.09.2.16.33.23.13.06.29.12.47.18.14.04.26.08.38.11.11.03.21.07.3.11.08.04.15.08.2.13.05.05.07.11.07.18,0,.2-.16.29-.48.29-.15,0-.3-.02-.45-.06-.15-.04-.28-.09-.4-.14-.12-.05-.22-.1-.3-.15-.08-.05-.13-.09-.15-.11l-.4.79c.11.08.24.15.38.21.14.06.28.11.42.15.14.04.29.08.44.1.15.02.29.03.44.03.19,0,.37-.02.55-.06.18-.04.33-.11.47-.21.14-.09.25-.22.33-.37.08-.15.12-.34.12-.56,0-.18-.03-.34-.09-.47-.06-.13-.14-.24-.25-.33-.11-.09-.24-.17-.39-.23-.15-.06-.32-.12-.51-.17-.13-.04-.25-.07-.35-.1-.1-.03-.19-.06-.25-.1-.07-.04-.12-.07-.16-.12l-.06-.17c0-.11.04-.19.13-.24.08-.05.2-.08.36-.08.12,0,.24.02.35.05.12.03.23.07.33.12.1.04.18.09.25.13l.12.08.39-.75c-.08-.05-.18-.1-.29-.15-.11-.05-.22-.1-.34-.14-.12-.04-.25-.07-.38-.1-.13-.03-.27-.04-.41-.04h0ZM27.05,2.33c-.3,0-.56.06-.8.17-.23.11-.43.26-.59.45-.16.18-.28.4-.37.63-.08.24-.13.47-.13.71,0,.25.05.5.14.74.09.24.22.46.38.65.16.19.36.35.59.46.23.12.48.18.75.18.15,0,.31-.02.47-.06.16-.04.31-.1.45-.18.14-.08.27-.17.38-.29.11-.11.2-.24.26-.39l-.75-.44c-.04.1-.09.18-.14.25-.06.07-.13.12-.2.17-.07.04-.15.08-.23.09-.08.02-.16.03-.23.03-.14,0-.27-.03-.39-.1-.12-.06-.22-.15-.3-.26-.08-.11-.15-.24-.19-.38-.05-.14-.07-.29-.07-.45,0-.14.02-.29.06-.43.04-.14.1-.27.17-.38.08-.11.18-.2.29-.27.12-.07.26-.11.42-.11.07,0,.14,0,.22.02.08.02.16.05.23.09.07.04.14.1.2.17.06.07.11.15.15.26l.7-.49c-.12-.25-.32-.46-.57-.62-.26-.16-.56-.24-.91-.24h0ZM30.67,2.33c-.27,0-.52.05-.75.16-.23.11-.43.25-.59.44-.17.18-.3.39-.39.63-.09.24-.14.49-.14.75s.05.5.14.74c.09.24.22.45.38.64.16.19.36.34.59.45.23.11.48.17.76.17s.52-.05.75-.17c.23-.11.43-.26.59-.44.16-.18.29-.39.39-.64.09-.24.14-.49.14-.75s-.04-.49-.13-.73c-.09-.24-.22-.45-.38-.64-.16-.19-.36-.34-.59-.45-.23-.11-.48-.17-.76-.17h0ZM2.53,2.35v3.93h.91v-2.25l1.81,2.25h.73v-3.93h-.9v2.31l-1.83-2.31h-.71ZM6.67,2.35v2.01c0,.26.03.51.1.74.06.24.17.44.3.62.14.18.32.32.54.43.22.11.49.16.8.16s.56-.05.78-.15c.22-.1.4-.24.54-.42.14-.18.25-.38.31-.62.07-.24.1-.49.1-.76v-2.01h-.9v2.01c0,.14-.01.28-.04.42-.03.14-.08.26-.14.37-.07.11-.15.19-.26.26-.11.07-.24.1-.39.1s-.29-.03-.39-.09c-.1-.06-.19-.15-.26-.26-.07-.11-.11-.23-.14-.37-.03-.14-.05-.28-.05-.43v-2.01h-.9,0ZM10.53,2.35v.8h1.2v3.14h.91v-3.14h1.19v-.8h-3.3ZM14.28,2.35v3.93h.91v-1.27h.59l.79,1.27h1.02l-.9-1.46c.1-.06.19-.12.27-.2.08-.08.15-.17.2-.27.06-.1.1-.21.13-.32.03-.11.04-.23.04-.35,0-.16-.03-.32-.1-.48-.06-.16-.15-.3-.27-.43-.11-.13-.25-.23-.41-.3-.16-.08-.33-.12-.51-.12h-1.77ZM33.06,2.35v3.93h.91v-1.27h.59l.79,1.27h1.02l-.9-1.46c.1-.06.19-.12.27-.2.08-.08.15-.17.2-.27.06-.1.1-.21.13-.32.03-.11.04-.23.04-.35,0-.16-.03-.32-.1-.48-.07-.16-.15-.3-.27-.43-.11-.13-.25-.23-.41-.3-.16-.08-.33-.12-.51-.12h-1.77,0ZM36.81,2.35v3.93h2.76v-.8h-1.85v-.84h1.55v-.74h-1.55v-.76h1.8v-.8h-2.71ZM18.03,2.35v3.93h.91v-3.93h-.91ZM30.65,3.14c.15,0,.29.03.4.1.12.06.22.15.3.26.08.11.14.23.19.38.04.14.06.29.06.44s-.02.29-.06.43c-.04.14-.1.27-.18.38-.08.11-.18.2-.3.27-.12.07-.26.11-.41.11s-.29-.03-.41-.1c-.12-.07-.22-.15-.3-.27-.08-.11-.14-.24-.18-.38-.04-.14-.06-.29-.06-.44s.02-.29.06-.43c.04-.14.1-.27.18-.38.08-.11.18-.2.3-.27.12-.07.26-.1.41-.1h0ZM15.18,3.15h.8c.1,0,.2.05.29.14.09.1.13.23.13.39s-.04.29-.12.39c-.08.1-.17.15-.27.15h-.83v-1.08ZM33.96,3.15h.8c.1,0,.2.05.29.14.09.1.13.23.13.39s-.04.29-.12.39c-.08.1-.17.15-.28.15h-.83v-1.08ZM19.61,4.36v.8h1.7v-.8h-1.7Z"/>
      <path class="cls-7" d="M31.66,26.19h-10.11V9.69h10.11v16.5Z"/>
      <path class="cls-6" d="M21.56,26.19h-10.11V9.69h10.11v16.5Z"/>
      <path class="cls-3" d="M41.77,26.19h-10.11V9.69h10.11v16.5Z"/>
      <path class="cls-1" d="M15.4,20.27v-1.87h.63c1.16,0,1.54.35,1.54.9,0,.68-.5.97-1.46.97h-.71ZM15.4,17.48v-1.83h.38c1,0,1.41.3,1.41.89,0,.55-.39.92-1.2.93h-.59ZM15.94,14.65h-1.81v6.62h2.04c1.92,0,2.71-.78,2.71-1.97,0-.65-.36-1.17-1.1-1.47.43-.33.73-.8.73-1.41,0-.98-.69-1.77-2.56-1.77Z"/>
      <path class="cls-1" d="M26.84,14.54c-1.77,0-3.13,1.32-3.13,3.4s1.25,3.41,3.15,3.41c1.22,0,2.1-.48,2.65-1.39l-.96-.7c-.39.63-.92.99-1.64.99-1.21,0-1.89-.85-1.89-2.32,0-1.38.7-2.28,1.77-2.28.71,0,1.22.36,1.47.96l1.21-.45c-.4-.93-1.12-1.61-2.64-1.61"/>
      <path class="cls-1" d="M35.17,20.25v-4.6h.72c1.58,0,2.35.84,2.35,2.29,0,1.32-.82,2.31-2.51,2.31h-.56ZM35.89,14.63h-2v6.62h1.86c2.36,0,3.79-1.41,3.79-3.31,0-2.07-1.33-3.31-3.65-3.31Z"/>
      <path class="cls-8" d="M2.85,9.69h8.6v16.5H2.85c-.83,0-1.5-.67-1.5-1.5v-13.5c0-.83.67-1.5,1.5-1.5Z"/>
      <path class="cls-4" d="M43.27,9.69h8.6v16.5h-8.6c-.83,0-1.5-.67-1.5-1.5v-13.5c0-.83.67-1.5,1.5-1.5Z" transform="translate(93.64 35.88) rotate(-180)"/>
      <path class="cls-1" d="M3.29,21.25l2.44-6.62h1.35l2.43,6.62h-1.73l-.33-1.06h-2.23l-.35,1.06h-1.58ZM5.67,18.83h1.35l-.66-2.09-.69,2.09h0Z"/>
      <path class="cls-1" d="M48.89,14.63h-4.19v6.62h4.23v-1h-2.95v-1.95h2.07v-1h-2.07v-1.68h2.91v-1h0Z"/>
      <g>
        <g>
          <path class="cls-3" d="M33.18,7.04h7.06c1.25,0,2.27,1.02,2.27,2.27v17.27c0,1.25-1.02,2.27-2.27,2.27h-7.06c-1.25,0-2.27-1.02-2.27-2.27V9.3c0-1.25,1.02-2.27,2.27-2.27Z"/>
          <path class="cls-2" d="M40.25,7.64c.92,0,1.67.75,1.67,1.67v17.28c0,.92-.75,1.67-1.67,1.67h-7.06c-.92,0-1.67-.75-1.67-1.67V9.3c0-.92.75-1.67,1.67-1.67h7.06M40.25,6.44h-7.06c-1.58,0-2.87,1.29-2.87,2.87v17.28c0,1.58,1.29,2.87,2.87,2.87h7.06c1.58,0,2.87-1.29,2.87-2.87V9.3c0-1.58-1.29-2.87-2.87-2.87h0Z"/>
        </g>
        <path class="cls-2" d="M32.73,13.53h3.14c.97,0,1.81.18,2.55.55s1.3.88,1.7,1.54.6,1.44.6,2.32-.2,1.62-.61,2.29c-.41.67-.98,1.19-1.71,1.56-.74.37-1.57.56-2.51.56h-3.14v-8.82ZM35.87,20.7c.91,0,1.62-.25,2.14-.74.52-.49.78-1.17.78-2.02s-.26-1.53-.78-2.02-1.24-.74-2.14-.74h-1.26v5.52h1.26Z"/>
      </g>
    </g>
  </g>
</svg>