<?xml version="1.0" encoding="UTF-8"?>
<svg id="Layer_2" data-name="Layer 2" xmlns="http://www.w3.org/2000/svg" viewBox="0 0 53.22 23.01">
  <defs>
    <style>
      .cls-1 {
        opacity: .5;
      }

      .cls-1, .cls-2 {
        fill: #fff;
      }

      .cls-3 {
        fill: #f47216;
      }

      .cls-4 {
        fill: #ef3120;
      }

      .cls-5 {
        fill: #73c82c;
      }

      .cls-6 {
        fill: #fbc707;
      }

      .cls-7 {
        fill: #0e8a4a;
      }
    </style>
  </defs>
  <g id="Layer_1-2" data-name="Layer 1">
    <g>
      <rect class="cls-2" y="2.01" width="53.22" height="19.23" rx="2.63" ry="2.63"/>
      <path class="cls-6" d="M31.66,19.75h-10.11V3.26h10.11v16.5Z"/>
      <path class="cls-5" d="M21.56,19.75h-10.11V3.26h10.11v16.5Z"/>
      <path class="cls-3" d="M41.77,19.75h-10.11V3.26h10.11v16.5Z"/>
      <path class="cls-1" d="M15.4,13.83v-1.87h.63c1.16,0,1.54.35,1.54.9,0,.68-.5.97-1.46.97h-.71ZM15.4,11.04v-1.83h.38c1,0,1.41.3,1.41.89,0,.55-.39.92-1.2.93h-.59ZM15.94,8.21h-1.81v6.62h2.04c1.92,0,2.71-.78,2.71-1.97,0-.65-.36-1.17-1.1-1.47.43-.33.73-.8.73-1.41,0-.98-.69-1.77-2.56-1.77Z"/>
      <path class="cls-1" d="M26.84,8.1c-1.77,0-3.13,1.32-3.13,3.4s1.25,3.41,3.15,3.41c1.22,0,2.1-.48,2.65-1.39l-.96-.7c-.39.63-.92.99-1.64.99-1.21,0-1.89-.85-1.89-2.32,0-1.38.7-2.28,1.77-2.28.71,0,1.22.36,1.47.96l1.21-.45c-.4-.93-1.12-1.61-2.64-1.61"/>
      <path class="cls-1" d="M35.17,13.82v-4.6h.72c1.58,0,2.35.84,2.35,2.29,0,1.32-.82,2.31-2.51,2.31h-.56ZM35.89,8.2h-2v6.62h1.86c2.36,0,3.79-1.41,3.79-3.31,0-2.07-1.33-3.31-3.65-3.31Z"/>
      <path class="cls-7" d="M2.85,3.26h8.6v16.5H2.85c-.83,0-1.5-.67-1.5-1.5V4.75c0-.83.67-1.5,1.5-1.5Z"/>
      <path class="cls-4" d="M43.27,3.26h8.6v16.5h-8.6c-.83,0-1.5-.67-1.5-1.5V4.75c0-.83.67-1.5,1.5-1.5Z" transform="translate(93.64 23.01) rotate(-180)"/>
      <path class="cls-1" d="M3.29,14.81l2.44-6.62h1.35l2.43,6.62h-1.73l-.33-1.06h-2.23l-.35,1.06h-1.58ZM5.67,12.4h1.35l-.66-2.09-.69,2.09h0Z"/>
      <path class="cls-1" d="M48.89,8.2h-4.19v6.62h4.23v-1h-2.95v-1.95h2.07v-1h-2.07v-1.68h2.91v-1h0Z"/>
      <g>
        <g>
          <rect class="cls-3" x="30.92" y=".6" width="11.6" height="21.81" rx="2.27" ry="2.27"/>
          <path class="cls-3" d="M40.25,1.2c.92,0,1.67.75,1.67,1.67v17.28c0,.92-.75,1.67-1.67,1.67h-7.06c-.92,0-1.67-.75-1.67-1.67V2.87c0-.92.75-1.67,1.67-1.67h7.06M40.25,0h-7.06c-1.58,0-2.87,1.29-2.87,2.87v17.28c0,1.58,1.29,2.87,2.87,2.87h7.06c1.58,0,2.87-1.29,2.87-2.87V2.87c0-1.58-1.29-2.87-2.87-2.87h0Z"/>
        </g>
        <path class="cls-2" d="M33.13,7.54h2.83c.87,0,1.63.17,2.29.49s1.17.79,1.53,1.39.54,1.29.54,2.09-.18,1.46-.55,2.06c-.37.6-.88,1.07-1.54,1.41-.66.34-1.42.5-2.26.5h-2.83v-7.94ZM35.95,13.99c.82,0,1.46-.22,1.93-.66.47-.44.7-1.05.7-1.82s-.23-1.38-.7-1.82-1.11-.66-1.93-.66h-1.13v4.97h1.13Z"/>
      </g>
    </g>
  </g>
</svg>