<?xml version="1.0" encoding="UTF-8"?>
<svg id="_Без_глютену" data-name="Без глютену" xmlns="http://www.w3.org/2000/svg" viewBox="0 0 1200 800">
  <defs>
    <style>
      .cls-1, .cls-2 {
        fill: #101820;
      }

      .cls-2 {
        fill-rule: evenodd;
      }

      .cls-3 {
        fill: #ffc62b;
      }
    </style>
  </defs>
  <rect class="cls-3" width="1200" height="800"/>
  <path class="cls-1" d="M522,447c43.08,0,78,34.92,78,78h-20.09c-39.16,0-70.91-31.75-70.91-70.91,0-3.92,3.17-7.09,7.09-7.09h5.91ZM684.91,447c3.92,0,7.09,3.17,7.09,7.09,0,39.16-31.75,70.91-70.91,70.91h-21.09c0-43.08,34.92-78,78-78h6.91ZM521,378c43.63,0,79,35.37,79,79h-17.18c-39.66,0-71.82-32.15-71.82-71.82,0-3.97,3.22-7.18,7.18-7.18h2.82ZM682.82,378c3.97,0,7.18,3.21,7.18,7.18,0,39.66-32.15,71.82-71.82,71.82h-18.18c0-43.63,35.37-79,79-79h3.82ZM675.87,310c3.92,0,7.13,3.17,7.13,7.09,0,39.16-31.75,70.91-70.91,70.91h-23.18c-39.16,0-70.91-31.75-70.91-70.91,0-3.92,3.21-7.09,7.12-7.09,41.17,0,74.88,33.38,74.88,74.55v.91c0-41.67,34.2-75.45,75.87-75.45ZM594.15,243.86c2.95-2.47,7.74-2.47,10.7,0,29.54,24.76,29.54,64.9,0,89.66l-5.35,4.48-5.35-4.48c-29.54-24.76-29.54-64.9,0-89.66Z"/>
  <path class="cls-2" d="M600.12,197.96c111.61,0,202.09,90.48,202.09,202.09s-90.48,202.09-202.09,202.09-202.09-90.48-202.09-202.09,90.48-202.09,202.09-202.09ZM600.12,217.96c-100.56,0-182.09,81.52-182.09,182.09,0,47.68,18.33,91.08,48.32,123.54l38.15-40.13c2.57,6.6,5.98,12.77,10.11,18.4l-33.9,35.66c31.97,27.79,73.72,44.62,119.41,44.62,100.57,0,182.09-81.53,182.09-182.09,0-49-19.36-93.48-50.84-126.21l-38.58,40.58c-1.15-7.29-6.91-12.99-14.1-14.19l38.05-40.03c-31.59-26.37-72.25-42.24-116.62-42.24Z"/>
</svg>