<?xml version="1.0" encoding="UTF-8"?>
<svg id="_Без_лактози" data-name="Без лактози" xmlns="http://www.w3.org/2000/svg" viewBox="0 0 1200 800">
  <defs>
    <style>
      .cls-1 {
        fill: #c5b4e2;
      }

      .cls-2 {
        fill: #101820;
        fill-rule: evenodd;
      }
    </style>
  </defs>
  <rect class="cls-1" width="1200" height="800"/>
  <path class="cls-2" d="M600.16,198c111.61,0,202.09,90.48,202.09,202.09s-90.48,202.09-202.09,202.09-202.09-90.48-202.09-202.09,90.48-202.09,202.09-202.09ZM600.16,218c-100.57,0-182.09,81.52-182.09,182.09,0,47.68,18.33,91.08,48.32,123.54l51.68-54.36v28.89s0,.13,0,.13l-37.32,39.26c31.97,27.79,73.72,44.62,119.41,44.62,100.57,0,182.09-81.52,182.09-182.09,0-49-19.36-93.48-50.84-126.21l-58.84,61.89-.31-.57-9.89-17.73,54.4-57.23c-31.59-26.37-72.25-42.24-116.62-42.24Z"/>
  <path class="cls-2" d="M632.65,260.04c2.25,0,3.38,0,4.33.09,9.54.91,17.1,8.46,18.01,18.01.09.95.09,2.07.09,4.33,0,1.46,0,2.19-.06,2.81-.54,5.62-4.62,10.18-10,11.43,1.07,8.61,3.78,16.95,8.03,24.57l10.48,18.8c5.6,10.05,8.54,21.37,8.54,32.87v125.92c-.44,17.02-14.16,30.73-31.17,31.16h-.83s-80,.01-80,.01h-.83c-17.02-.44-30.73-14.16-31.16-31.17v-.83s-.01-125.09-.01-125.09c0-11.15,2.76-22.11,8.03-31.93l.52-.95,10.48-18.8c4.25-7.62,6.96-15.96,8.03-24.57-5.38-1.24-9.47-5.8-10-11.43-.06-.62-.06-1.35-.06-2.81,0-2.25,0-3.38.09-4.33.91-9.54,8.47-17.1,18.01-18.01.95-.09,2.07-.09,4.33-.09h65.15ZM569.07,387.04v98h14v-98h-14ZM575.22,297.04c-1.18,11.9-4.79,23.47-10.65,33.97l-10.49,18.8c-1.31,2.35-2.41,4.8-3.3,7.32,12.88-3.78,30.22-6.1,49.29-6.1s36.41,2.32,49.29,6.1c-.81-2.28-1.79-4.51-2.94-6.66l-.36-.67-10.49-18.8c-5.85-10.5-9.46-22.07-10.64-33.97h-49.71Z"/>
</svg>