<?xml version="1.0" encoding="UTF-8"?>
<svg id="_Без_доданого_цукру" data-name="Без доданого цукру" xmlns="http://www.w3.org/2000/svg" viewBox="0 0 1200 800">
  <defs>
    <style>
      .cls-1, .cls-2 {
        fill: #101820;
      }

      .cls-3 {
        fill: #61d0e0;
      }

      .cls-2 {
        fill-rule: evenodd;
      }
    </style>
  </defs>
  <rect class="cls-3" width="1200" height="800"/>
  <path class="cls-1" d="M590.84,283.13c5.8-3,12.7-3,18.51,0l90.85,46.99c6.69,3.46,10.89,10.36,10.89,17.9v104.65c0,7.53-4.2,14.43-10.89,17.89l-90.85,46.99c-5.8,3-12.7,3-18.51,0l-90.85-46.99c-6.69-3.46-10.89-10.36-10.89-17.89v-104.65c0-7.53,4.2-14.43,10.89-17.9l90.85-46.99ZM519.35,362.59l73.82,37.74v89.12h14v-97.68l-81.45-41.64-6.37,12.46Z"/>
  <path class="cls-2" d="M600.09,197.96c111.61,0,202.09,90.48,202.09,202.09s-90.48,202.09-202.09,202.09-202.09-90.48-202.09-202.09,90.48-202.09,202.09-202.09ZM600.09,217.96c-100.57,0-182.09,81.52-182.09,182.09,0,47.68,18.33,91.08,48.33,123.54l37.72-39.68,18.5,9.57-41.86,44.04c31.97,27.79,73.72,44.62,119.41,44.62,100.57,0,182.09-81.53,182.09-182.09,0-49-19.36-93.48-50.84-126.21l-38.96,40.98-18.5-9.57,42.82-45.05c-31.59-26.37-72.25-42.24-116.62-42.24Z"/>
</svg>