<?xml version="1.0" encoding="UTF-8"?>
<svg id="_Органік" data-name="Органік" xmlns="http://www.w3.org/2000/svg" viewBox="0 0 1200 800">
  <defs>
    <style>
      .cls-1, .cls-2 {
        fill: #101820;
      }

      .cls-2 {
        fill-rule: evenodd;
      }

      .cls-3 {
        fill: #89dc65;
      }
    </style>
  </defs>
  <rect class="cls-3" width="1200" height="800"/>
  <path class="cls-2" d="M688.68,340.14c4.69,4.64,4.69,12.18,0,16.82l-205.47,203.52c-4.69,4.64-12.29,4.64-16.98,0-4.69-4.65-4.69-12.18,0-16.82l205.47-203.52c4.69-4.64,12.29-4.64,16.98,0Z"/>
  <path class="cls-1" d="M510.25,405.12c4.14-2.09,8.57,2.29,6.46,6.4l-8.34,16.21c-.94,1.84-.59,4.07.88,5.52l12.99,12.86c3.29,3.26.45,8.78-4.15,8.06l-18.14-2.85c-2.05-.32-4.09.7-5.03,2.54l-8.34,16.21c-2.11,4.11-8.3,3.14-9.02-1.42l-2.87-17.97c-.32-2.04-1.94-3.63-3.99-3.96l-18.14-2.85c-4.59-.72-5.57-6.85-1.43-8.94l16.37-8.26c1.85-.94,2.89-2.95,2.56-4.98l-2.87-17.97c-.73-4.55,4.85-7.37,8.14-4.11l12.99,12.87c1.47,1.46,3.72,1.81,5.58.88l16.37-8.26Z"/>
  <path class="cls-1" d="M622,515.82c2.11-4.11-2.31-8.49-6.46-6.4l-16.37,8.26c-1.85.94-4.1.58-5.58-.88l-12.99-12.86c-3.29-3.26-8.87-.44-8.14,4.11l2.87,17.97c.33,2.04-.71,4.05-2.56,4.98l-16.37,8.26c-4.14,2.09-3.17,8.22,1.43,8.94l18.14,2.85c2.05.32,3.67,1.92,3.99,3.96l2.87,17.97c.73,4.55,6.91,5.52,9.02,1.42l8.34-16.21c.95-1.84,2.98-2.86,5.03-2.54l18.14,2.85c4.6.72,7.44-4.8,4.15-8.06l-12.99-12.86c-1.47-1.46-1.83-3.69-.88-5.52l8.34-16.21Z"/>
  <path class="cls-1" d="M601.95,260.47c4.15-2.09,8.57,2.29,6.46,6.4l-8.34,16.21c-.94,1.84-.59,4.07.88,5.52l12.99,12.86c3.29,3.26.45,8.78-4.15,8.06l-18.14-2.85c-2.05-.32-4.09.7-5.03,2.54l-8.34,16.21c-2.11,4.11-8.3,3.14-9.02-1.41l-2.87-17.97c-.33-2.04-1.94-3.63-3.99-3.96l-18.14-2.85c-4.59-.72-5.57-6.84-1.43-8.94l16.37-8.26c1.85-.94,2.89-2.95,2.56-4.98l-2.87-17.97c-.73-4.55,4.85-7.37,8.14-4.11l12.99,12.87c1.47,1.46,3.72,1.81,5.58.88l16.37-8.26Z"/>
  <path class="cls-1" d="M768.03,424.98c2.11-4.11-2.31-8.49-6.46-6.4l-16.37,8.26c-1.85.94-4.11.58-5.58-.88l-12.99-12.87c-3.29-3.26-8.87-.44-8.14,4.11l2.87,17.97c.33,2.04-.71,4.05-2.56,4.98l-16.37,8.26c-4.15,2.09-3.17,8.22,1.43,8.94l18.14,2.85c2.06.32,3.67,1.92,3.99,3.95l2.87,17.97c.73,4.55,6.91,5.52,9.02,1.42l8.34-16.21c.95-1.84,2.98-2.86,5.03-2.54l18.14,2.85c4.6.72,7.44-4.8,4.15-8.06l-12.99-12.87c-1.47-1.46-1.83-3.69-.88-5.52l8.34-16.21Z"/>
  <path class="cls-1" d="M693.65,236.94c4.15-2.09,8.57,2.29,6.46,6.4l-8.34,16.21c-.95,1.84-.59,4.07.88,5.52l12.99,12.86c3.29,3.26.45,8.78-4.15,8.06l-18.14-2.85c-2.06-.32-4.09.7-5.03,2.54l-8.34,16.21c-2.11,4.11-8.29,3.14-9.02-1.41l-2.87-17.97c-.33-2.04-1.94-3.63-3.99-3.96l-18.14-2.85c-4.6-.72-5.58-6.84-1.43-8.94l16.37-8.26c1.85-.93,2.89-2.95,2.56-4.98l-2.87-17.97c-.73-4.55,4.85-7.37,8.14-4.11l12.99,12.87c1.47,1.46,3.72,1.81,5.58.88l16.37-8.26Z"/>
  <path class="cls-1" d="M791.81,334.15c2.11-4.11-2.31-8.49-6.46-6.4l-16.37,8.26c-1.85.93-4.11.58-5.58-.88l-12.99-12.86c-3.29-3.26-8.87-.44-8.14,4.11l2.87,17.97c.33,2.04-.71,4.05-2.56,4.98l-16.37,8.26c-4.15,2.09-3.17,8.22,1.43,8.94l18.14,2.85c2.05.32,3.67,1.92,3.99,3.95l2.87,17.97c.73,4.55,6.91,5.52,9.02,1.42l8.34-16.21c.95-1.84,2.98-2.86,5.03-2.54l18.14,2.85c4.59.72,7.44-4.8,4.15-8.06l-12.99-12.86c-1.47-1.46-1.83-3.69-.88-5.52l8.34-16.21Z"/>
  <path class="cls-1" d="M788.74,230.22c4.15-2.09,8.57,2.29,6.46,6.4l-8.34,16.21c-.95,1.84-.59,4.07.88,5.52l12.99,12.86c3.29,3.26.45,8.78-4.15,8.06l-18.14-2.85c-2.05-.32-4.09.7-5.03,2.54l-8.34,16.21c-2.11,4.11-8.29,3.14-9.02-1.42l-2.87-17.97c-.33-2.04-1.94-3.63-3.99-3.95l-18.14-2.85c-4.6-.72-5.57-6.85-1.43-8.94l16.37-8.26c1.85-.93,2.89-2.95,2.56-4.98l-2.87-17.97c-.73-4.55,4.85-7.37,8.14-4.11l12.99,12.87c1.47,1.46,3.72,1.81,5.58.88l16.37-8.26Z"/>
  <path class="cls-1" d="M530.63,317.67c4.15-2.09,8.57,2.29,6.46,6.4l-8.34,16.21c-.95,1.84-.59,4.07.88,5.52l12.99,12.86c3.29,3.26.45,8.78-4.15,8.06l-18.14-2.85c-2.06-.32-4.09.7-5.03,2.54l-8.34,16.21c-2.11,4.11-8.3,3.14-9.02-1.42l-2.87-17.97c-.33-2.04-1.94-3.63-3.99-3.95l-18.14-2.85c-4.6-.72-5.58-6.85-1.43-8.94l16.37-8.26c1.85-.94,2.89-2.95,2.56-4.98l-2.87-17.97c-.73-4.55,4.85-7.37,8.14-4.11l12.99,12.87c1.47,1.46,3.72,1.81,5.58.87l16.37-8.26Z"/>
  <path class="cls-1" d="M710.3,495.64c2.11-4.11-2.31-8.49-6.46-6.4l-16.37,8.26c-1.85.94-4.1.58-5.58-.88l-12.99-12.86c-3.29-3.26-8.87-.44-8.14,4.11l2.87,17.97c.33,2.04-.71,4.05-2.56,4.98l-16.37,8.26c-4.15,2.09-3.17,8.22,1.43,8.94l18.14,2.85c2.05.32,3.67,1.92,3.99,3.95l2.87,17.97c.73,4.55,6.91,5.52,9.02,1.42l8.34-16.21c.94-1.84,2.98-2.86,5.03-2.54l18.14,2.85c4.6.72,7.44-4.8,4.15-8.06l-12.99-12.86c-1.47-1.46-1.83-3.69-.88-5.52l8.34-16.21Z"/>
</svg>