<?xml version="1.0" encoding="UTF-8"?>
<svg id="_Веган" data-name="Веган" xmlns="http://www.w3.org/2000/svg" viewBox="0 0 1200 800">
  <defs>
    <style>
      .cls-1, .cls-2 {
        fill: #101820;
      }

      .cls-3 {
        fill: #7adea8;
      }

      .cls-2 {
        fill-rule: evenodd;
      }
    </style>
  </defs>
  <rect class="cls-3" width="1200" height="800"/>
  <path class="cls-1" d="M631.38,252.44c2.78-4.8,8.92-6.43,13.72-3.65,4.8,2.78,6.43,8.92,3.65,13.72-4.63,8-12.45,30.17-20.06,75.09-7.54,44.5-14.73,110.38-18.69,204.94-.23,5.54-4.91,9.84-10.45,9.61-5.54-.23-9.84-4.91-9.61-10.45,3.99-95.13,11.23-161.89,18.95-207.45,7.65-45.14,15.9-70.44,22.48-81.8Z"/>
  <path class="cls-2" d="M448.66,280.86c36.63,21.19,94.2,69.67,117.66,144.01.25.34.49.71.7,1.09.97,1.73,1.37,3.62,1.26,5.47,9.24,32.7,11.77,69.99,3.35,111.61-1.1,5.43-6.4,8.95-11.83,7.85-5.43-1.1-8.95-6.4-7.85-11.83,7.07-34.96,5.74-66.32-.87-94.04-10.04,3.57-22.67,6.06-36.21,5.22-19.79-1.23-41.32-9.62-58.81-31.53-17.37-21.75-24.42-48.49-26.45-72.39-2.04-23.92.87-45.95,4.3-59.27l3.3-12.81,11.45,6.62ZM463.43,336.74c22.45,19.75,39.45,41.63,51.18,59.03,5.86,8.68,10.38,16.23,13.61,21.8,1.62,2.8,2.9,5.07,3.9,6.83.49.86.93,1.63,1.3,2.24.28.47.78,1.3,1.33,1.96l10.8-8.91c.23.27.24.35-.12-.25-.28-.46-.65-1.1-1.14-1.96-.95-1.68-2.29-4.06-3.95-6.92-3.33-5.76-8.03-13.59-14.12-22.62-12.16-18.03-29.92-40.93-53.54-61.71l-9.25,10.51Z"/>
  <path class="cls-2" d="M771.96,287.04c3.43,13.32,6.33,35.35,4.3,59.27-2.03,23.9-9.08,50.64-26.45,72.39-17.49,21.9-39.02,30.3-58.81,31.53-13.53.84-26.16-1.65-36.21-5.22-6.61,27.72-7.95,59.07-.87,94.04,1.1,5.43-2.41,10.73-7.85,11.83-5.43,1.1-10.73-2.42-11.83-7.85-8.42-41.61-5.89-78.91,3.35-111.61-.11-1.84.29-3.74,1.26-5.47.21-.38.45-.74.7-1.09,23.46-74.34,81.03-122.82,117.66-144.01l11.45-6.62,3.3,12.81ZM727.72,336.31c-21.93,18.53-38.43,38.95-49.73,55.03-5.65,8.05-10.02,15.04-13.11,20.17-1.54,2.55-2.78,4.68-3.66,6.16-.45.76-.79,1.33-1.04,1.73-.34.54-.29.42-.04.13l10.62,9.13c.55-.64,1.04-1.42,1.3-1.84.35-.56.76-1.25,1.21-2.01.93-1.57,2.11-3.58,3.61-6.07,2.98-4.95,7.17-11.64,12.58-19.35,10.84-15.44,26.56-34.86,47.3-52.39l-9.03-10.69Z"/>
</svg>