<?xml version="1.0" encoding="UTF-8"?>
<svg id="Layer_2" data-name="Layer 2" xmlns="http://www.w3.org/2000/svg" xmlns:xlink="http://www.w3.org/1999/xlink" viewBox="0 0 40 40">
  <defs>
    <style>
      .cls-1 {
        fill: none;
      }

      .cls-2 {
        fill: #f47216;
      }

      .cls-3 {
        fill: #ef3120;
      }

      .cls-4 {
        fill: #fff;
      }

      .cls-5 {
        fill: #73c82c;
      }

      .cls-6 {
        fill: #fbc707;
      }

      .cls-7 {
        clip-path: url(#clippath);
      }

      .cls-8 {
        fill: #0e8a4a;
      }
    </style>
    <clipPath id="clippath">
      <rect class="cls-1" width="40" height="40" rx="4.63" ry="4.63"/>
    </clipPath>
  </defs>
  <g id="Layer_1-2" data-name="Layer 1">
    <g>
      <rect class="cls-2" width="40" height="40" rx="4.63" ry="4.63"/>
      <g class="cls-7">
        <g>
          <rect class="cls-8" y="28.95" width="8" height="11.16"/>
          <rect class="cls-5" x="8" y="28.95" width="8" height="11.16"/>
          <rect class="cls-6" x="16" y="28.95" width="8" height="11.16"/>
          <rect class="cls-2" x="24" y="28.95" width="8" height="11.16"/>
          <rect class="cls-3" x="32" y="28.95" width="8" height="11.16"/>
        </g>
      </g>
      <path class="cls-4" d="M12.86,5.48h6.4c1.97,0,3.7.37,5.19,1.12s2.64,1.8,3.46,3.15,1.22,2.93,1.22,4.73-.41,3.3-1.25,4.67c-.83,1.36-2,2.43-3.5,3.19-1.5.76-3.21,1.14-5.13,1.14h-6.4V5.48ZM19.27,20.11c1.85,0,3.31-.5,4.37-1.5,1.06-1,1.59-2.38,1.59-4.13s-.53-3.12-1.59-4.13-2.52-1.5-4.37-1.5h-2.57v11.26h2.57Z"/>
    </g>
  </g>
</svg>