<?xml version="1.0" encoding="UTF-8"?>
<svg id="Layer_2" xmlns="http://www.w3.org/2000/svg" version="1.1" viewBox="0 0 53.2 21">
  <!-- Generator: Adobe Illustrator 30.6.0, SVG Export Plug-In . SVG Version: 2.1.4 Build 109)  -->
  <defs>
    <style>
      .st0 {
        fill: #f47216;
      }

      .st1 {
        fill: #ef3120;
      }

      .st2, .st3 {
        fill: #fff;
      }

      .st4 {
        fill: #73c82c;
      }

      .st5 {
        fill: #fbc707;
      }

      .st6 {
        fill: #0e8a4a;
      }

      .st3 {
        isolation: isolate;
        opacity: .5;
      }
    </style>
  </defs>
  <rect class="st2" y="1" width="53.2" height="19.2" rx="2.6" ry="2.6"/>
  <path class="st5" d="M31.7,18.8h-10.1V2.3h10.1v16.5h0Z"/>
  <path class="st4" d="M21.6,18.8h-10.1V2.3h10.1v16.5h0Z"/>
  <path class="st0" d="M41.8,17.8h-10.1V3.3h10.1v14.5h0Z"/>
  <path class="st3" d="M15.4,12.8v-1.9h.6c1.2,0,1.5.4,1.5.9s-.5,1-1.5,1h-.7ZM15.4,10v-1.8h.4c1,0,1.4.3,1.4.9s-.4.9-1.2.9h-.6ZM15.9,7.2h-1.8v6.6h2c1.9,0,2.7-.8,2.7-2s-.4-1.2-1.1-1.5c.4-.3.7-.8.7-1.4,0-1-.7-1.8-2.6-1.8h0Z"/>
  <path class="st3" d="M26.8,7.1c-1.8,0-3.1,1.3-3.1,3.4s1.2,3.4,3.1,3.4,2.1-.5,2.6-1.4l-1-.7c-.4.6-.9,1-1.6,1-1.2,0-1.9-.9-1.9-2.3s.7-2.3,1.8-2.3,1.2.4,1.5,1l1.2-.4c-.4-.9-1.1-1.6-2.6-1.6"/>
  <path class="st3" d="M35.2,12.8v-4.6h.7c1.6,0,2.3.8,2.3,2.3s-.8,2.3-2.5,2.3h-.6ZM35.9,7.2h-2v6.6h1.9c2.4,0,3.8-1.4,3.8-3.3s-1.3-3.3-3.7-3.3Z"/>
  <path class="st6" d="M2.8,2.3h8.6v16.5H2.8c-.8,0-1.5-.7-1.5-1.5V3.8c0-.8.7-1.5,1.5-1.5h0Z"/>
  <path class="st1" d="M50.4,18.8h-8.6V2.3h8.6c.8,0,1.5.7,1.5,1.5v13.5c0,.8-.7,1.5-1.5,1.5h0Z"/>
  <path class="st3" d="M3.3,13.8l2.4-6.6h1.3l2.4,6.6h-1.7l-.3-1.1h-2.2l-.3,1.1s-1.6,0-1.6,0ZM5.7,11.4h1.3l-.7-2.1-.7,2.1h0Z"/>
  <path class="st3" d="M48.9,7.2h-4.2v6.6h4.2v-1h-3v-1.9h2.1v-1h-2.1v-1.7h2.9v-1h0Z"/>
  <rect class="st0" x="30.9" y=".6" width="11.6" height="19.8" rx="2.3" ry="2.3"/>
  <path class="st0" d="M40.2,1.2c.9,0,1.7.8,1.7,1.7v15.3c0,.9-.8,1.7-1.7,1.7h-7.1c-.9,0-1.7-.8-1.7-1.7V2.9c0-.9.7-1.7,1.7-1.7h7.1M40.2,0h-7.1c-1.6,0-2.9,1.3-2.9,2.9v15.3c0,1.6,1.3,2.9,2.9,2.9h7.1c1.6,0,2.9-1.3,2.9-2.9V2.9c0-1.6-1.3-2.9-2.9-2.9h0Z"/>
  <path class="st2" d="M33.1,6.5h2.8c.9,0,1.6.2,2.3.5s1.2.8,1.5,1.4.5,1.3.5,2.1-.2,1.5-.5,2.1c-.4.6-.9,1.1-1.5,1.4s-1.4.5-2.3.5h-2.8v-7.9h0ZM36,13c.8,0,1.5-.2,1.9-.7s.7-1.1.7-1.8-.2-1.4-.7-1.8-1.1-.7-1.9-.7h-1.1v5h1.1Z"/>
</svg>