<?xml version="1.0" encoding="UTF-8"?>
<svg id="Layer_2" data-name="Layer 2" xmlns="http://www.w3.org/2000/svg" viewBox="0 0 54.98 29.98">
  <defs>
    <style>
      .cls-1 {
        opacity: .5;
      }

      .cls-1, .cls-2 {
        fill: #fff;
      }

      .cls-3 {
        fill: #f47216;
      }

      .cls-4 {
        fill: #ef3120;
      }

      .cls-5 {
        fill: #706d6e;
      }

      .cls-6 {
        fill: #73c82c;
      }

      .cls-7 {
        fill: #fbc707;
      }

      .cls-8 {
        fill: #0e8a4a;
      }
    </style>
  </defs>
  <g id="Layer_1-2" data-name="Layer 1">
    <g>
      <path class="cls-2" d="M48.76,0H6.22C2.78,0,0,2.78,0,6.22v16.46c0,.19.01.37.03.55v.35c0,3.53,3.1,6.4,6.9,6.4h.72c1.42,0,2.74-.4,3.84-1.09h37.26c3.43,0,6.22-2.78,6.22-6.22V6.22c0-3.43-2.78-6.22-6.22-6.22Z"/>
      <path class="cls-4" d="M48.7,26.72h-6.04V10.22h6.04c2.24,0,4.06,1.82,4.06,4.07v8.35c0,2.25-1.82,4.07-4.06,4.07Z"/>
      <path class="cls-1" d="M49.98,14.96h-4.65v7.35h4.7v-1.11h-3.28v-2.16h2.3v-1.11h-2.3v-1.87h3.24v-1.11h0Z"/>
      <path class="cls-5" d="M24.21,2.85c-.2,0-.38.03-.55.08-.18.06-.33.14-.46.25-.13.11-.24.24-.31.4-.08.16-.12.34-.12.55,0,.15.02.28.06.39.04.11.11.21.19.29.09.09.2.16.33.23.13.06.29.12.47.18.14.04.26.08.38.11.11.03.21.07.3.11.08.04.15.08.2.13.05.05.07.11.07.18,0,.2-.16.29-.48.29-.15,0-.3-.02-.45-.06-.15-.04-.28-.09-.4-.14-.12-.05-.22-.1-.3-.15-.08-.05-.13-.09-.15-.11l-.4.79c.11.08.24.15.38.21.14.06.28.11.42.15.14.04.29.08.44.1.15.02.29.03.44.03.19,0,.37-.02.55-.06.18-.04.33-.11.47-.21.14-.09.25-.22.33-.37.08-.15.12-.34.12-.56,0-.18-.03-.34-.09-.47-.06-.13-.14-.24-.25-.33-.11-.09-.24-.17-.39-.23-.15-.06-.32-.12-.51-.17-.13-.04-.25-.07-.35-.1-.1-.03-.19-.06-.25-.1-.07-.04-.12-.07-.16-.12l-.06-.17c0-.11.04-.19.13-.24.08-.05.2-.08.36-.08.12,0,.24.02.35.05.12.03.23.07.33.12.1.04.18.09.25.13l.12.08.39-.75c-.08-.05-.18-.1-.29-.15-.11-.05-.22-.1-.34-.14-.12-.04-.25-.07-.38-.1-.13-.03-.27-.04-.41-.04h0ZM27.94,2.86c-.3,0-.56.06-.8.17-.23.11-.43.26-.59.45-.16.18-.28.4-.37.63-.08.24-.13.47-.13.71,0,.25.05.5.14.74.09.24.22.46.38.65.16.19.36.35.59.46.23.12.48.18.75.18.15,0,.31-.02.47-.06.16-.04.31-.1.45-.18.14-.08.27-.17.38-.29.11-.11.2-.24.26-.39l-.75-.44c-.04.1-.09.18-.14.25-.06.07-.13.12-.2.17-.07.04-.15.08-.23.09-.08.02-.16.03-.23.03-.14,0-.27-.03-.39-.1-.12-.06-.22-.15-.3-.26-.08-.11-.15-.24-.19-.38-.05-.14-.07-.29-.07-.45,0-.14.02-.29.06-.43.04-.14.1-.27.17-.38.08-.11.18-.2.29-.27.12-.07.26-.11.42-.11.07,0,.14,0,.22.02.08.02.16.05.23.09.07.04.14.1.2.17.06.07.11.15.15.26l.7-.49c-.12-.25-.32-.46-.57-.62-.26-.16-.56-.24-.91-.24h0ZM31.55,2.86c-.27,0-.52.05-.75.16-.23.11-.43.25-.59.44-.17.18-.3.39-.39.63-.09.24-.14.49-.14.75s.05.5.14.74c.09.24.22.45.38.64.16.19.36.34.59.45.23.11.48.17.76.17s.52-.05.75-.17c.23-.11.43-.26.59-.44.16-.18.29-.39.39-.64.09-.24.14-.49.14-.75s-.04-.49-.13-.73c-.09-.24-.22-.45-.38-.64-.16-.19-.36-.34-.59-.45-.23-.11-.48-.17-.76-.17h0ZM3.42,2.88v3.93h.91v-2.25l1.81,2.25h.73v-3.93h-.9v2.31l-1.83-2.31h-.71ZM7.56,2.88v2.01c0,.26.03.51.1.74.06.24.17.44.3.62.14.18.32.32.54.43.22.11.49.16.8.16s.56-.05.78-.15c.22-.1.4-.24.54-.42.14-.18.25-.38.31-.62.07-.24.1-.49.1-.76v-2.01h-.9v2.01c0,.14-.01.28-.04.42-.03.14-.08.26-.14.37-.07.11-.15.19-.26.26-.11.07-.24.1-.39.1s-.29-.03-.39-.09c-.1-.06-.19-.15-.26-.26-.07-.11-.11-.23-.14-.37-.03-.14-.05-.28-.05-.43v-2.01h-.9,0ZM11.42,2.88v.8h1.2v3.14h.91v-3.14h1.19v-.8h-3.3ZM15.17,2.88v3.93h.91v-1.27h.59l.79,1.27h1.02l-.9-1.46c.1-.06.19-.12.27-.2.08-.08.15-.17.2-.27.06-.1.1-.21.13-.32.03-.11.04-.23.04-.35,0-.16-.03-.32-.1-.48-.06-.16-.15-.3-.27-.43-.11-.13-.25-.23-.41-.3-.16-.08-.33-.12-.51-.12h-1.77ZM33.95,2.88v3.93h.91v-1.27h.59l.79,1.27h1.02l-.9-1.46c.1-.06.19-.12.27-.2.08-.08.15-.17.2-.27.06-.1.1-.21.13-.32.03-.11.04-.23.04-.35,0-.16-.03-.32-.1-.48-.07-.16-.15-.3-.27-.43-.11-.13-.25-.23-.41-.3-.16-.08-.33-.12-.51-.12h-1.77,0ZM37.7,2.88v3.93h2.76v-.8h-1.85v-.84h1.55v-.74h-1.55v-.76h1.8v-.8h-2.71ZM18.92,2.89v3.93h.91v-3.93h-.91ZM31.54,3.67c.15,0,.29.03.4.1.12.06.22.15.3.26.08.11.14.23.19.38.04.14.06.29.06.44s-.02.29-.06.43c-.04.14-.1.27-.18.38-.08.11-.18.2-.3.27-.12.07-.26.11-.41.11s-.29-.03-.41-.1c-.12-.07-.22-.15-.3-.27-.08-.11-.14-.24-.18-.38-.04-.14-.06-.29-.06-.44s.02-.29.06-.43c.04-.14.1-.27.18-.38.08-.11.18-.2.3-.27.12-.07.26-.1.41-.1h0ZM16.07,3.68h.8c.1,0,.2.05.29.14.09.1.13.23.13.39s-.04.29-.12.39c-.08.1-.17.15-.27.15h-.83v-1.08ZM34.85,3.68h.8c.1,0,.2.05.29.14.09.1.13.23.13.39s-.04.29-.12.39c-.08.1-.17.15-.28.15h-.83v-1.08ZM20.5,4.89v.8h1.7v-.8h-1.7Z"/>
      <path class="cls-7" d="M32.55,26.72h-10.11V10.22h10.11v16.5Z"/>
      <path class="cls-3" d="M42.66,26.72h-10.11V10.22h10.11v16.5Z"/>
      <path class="cls-1" d="M27.67,14.7c-1.97,0-3.48,1.47-3.48,3.77s1.39,3.79,3.5,3.79c1.36,0,2.33-.53,2.94-1.54l-1.06-.78c-.43.7-1.03,1.1-1.82,1.1-1.35,0-2.1-.94-2.1-2.58,0-1.53.77-2.54,1.97-2.54.78,0,1.36.39,1.64,1.07l1.35-.5c-.44-1.03-1.25-1.79-2.93-1.79"/>
      <path class="cls-1" d="M36.29,21.05v-5.12h.8c1.76,0,2.61.94,2.61,2.55,0,1.47-.92,2.57-2.79,2.57h-.62ZM37.09,14.81h-2.22v7.35h2.07c2.62,0,4.21-1.57,4.21-3.68,0-2.3-1.48-3.68-4.06-3.68Z"/>
      <g>
        <polygon class="cls-8" points="6.28 19.4 8.28 19.4 7.31 16.3 6.28 19.4"/>
        <path class="cls-8" d="M7.65,8.16h-.72c-3.15,0-5.7,2.33-5.7,5.2v10.21c0,2.87,2.55,5.2,5.7,5.2h.72c3.15,0,5.7-2.33,5.7-5.2v-10.21c0-2.87-2.55-5.2-5.7-5.2ZM9.41,22.98l-.49-1.58h-3.3l-.52,1.58h-2.34l3.62-9.8h2l3.59,9.8h-2.56Z"/>
      </g>
      <path class="cls-6" d="M13.66,10.22c.57.93.89,2,.89,3.14v10.21c0,1.14-.33,2.21-.89,3.14h8.79V10.22h-8.79Z"/>
      <path class="cls-1" d="M16.17,21.05v-2.08h.7c1.29,0,1.71.39,1.71,1,0,.76-.55,1.08-1.63,1.08h-.78ZM16.17,17.95v-2.04h.42c1.12,0,1.57.33,1.57.99,0,.61-.43,1.02-1.34,1.03h-.65ZM16.77,14.81h-2.01v7.35h2.26c2.13,0,3.01-.86,3.01-2.18,0-.72-.4-1.3-1.23-1.63.47-.37.81-.89.81-1.57,0-1.09-.76-1.97-2.84-1.97Z"/>
    </g>
  </g>
</svg>